<?xml version="1.0" encoding="utf-8"?>
<!-- Generator: Adobe Illustrator 25.3.1, SVG Export Plug-In . SVG Version: 6.00 Build 0)  -->
<svg version="1.1" id="Layer_1" xmlns="http://www.w3.org/2000/svg" xmlns:xlink="http://www.w3.org/1999/xlink" x="0px" y="0px"
	 viewBox="0 0 600 200" style="enable-background:new 0 0 600 200;" xml:space="preserve">
<style type="text/css">
	.st0{fill:none;stroke:#E2508F;stroke-width:1.5;stroke-miterlimit:10;}
	.st1{opacity:0.5;fill:#E2508F;}
	.st2{fill:#EE94BF;stroke:#EE94BF;stroke-miterlimit:10;}
	.st3{fill:#A34983;}
	.st4{fill:#EE94BF;}
	.st5{fill:#F37129;}
</style>
<g>
	<line id="Rod" class="st0" x1="239.5" y1="93.9" x2="255.6" y2="93.9"/>
	<rect x="377.7" y="94.3" class="st1" width="3.9" height="16.9"/>
	<rect id="Body" x="50" y="95.2" class="st2" width="330.4" height="15.3"/>
	<path id="Headjoint" class="st2" d="M547.1,109.9H413.9V95.6h133.2c1.6,0,2.9,1.3,2.9,2.9v8.4C550,108.6,548.7,109.9,547.1,109.9z"
		/>
	<path id="Mouthpiece" class="st1" d="M516.3,108.2h-29.9c-2.5,0-4.5-2-4.5-4.5v-7.1c0-2.5,2-4.5,4.5-4.5h29.9c2.5,0,4.5,2,4.5,4.5
		v7.1C520.8,106.2,518.8,108.2,516.3,108.2z"/>
	<ellipse id="Blowhole" class="st3" cx="503.4" cy="100.5" rx="6" ry="4.1"/>
	<rect x="377.7" y="94.7" class="st4" width="34.9" height="16.1"/>
	<circle id="D_Key" class="st5" cx="159" cy="100.2" r="7.6"/>
	<circle id="E_Key" class="st5" cx="180.4" cy="100.2" r="7.6"/>
	<circle id="F_Key" class="st5" cx="201.9" cy="100.2" r="7.6"/>
	<circle id="Linked_F" class="st5" cx="221.6" cy="100.2" r="7.6"/>
	<circle id="Linked_G" class="st5" cx="239.5" cy="103.7" r="7.2"/>
	<circle id="G_Key" class="st5" cx="255.6" cy="103.7" r="7.2"/>
	<circle id="A_Key" class="st5" cx="273.5" cy="100.2" r="7.6"/>
	<circle id="Skip_Key" class="st5" cx="291.4" cy="100.2" r="7.6"/>
	<circle id="B_Key" class="st5" cx="309.3" cy="98.4" r="5.4"/>
	<circle id="Linked_B" class="st5" cx="328.9" cy="98.4" r="5.4"/>
	<circle id="Linked_D_x23_" class="st5" cx="132.9" cy="107.3" r="7.6"/>
	<ellipse id="Linked_C_x23_" class="st5" cx="83.5" cy="90.5" rx="7.6" ry="5.4"/>
	<ellipse id="Linked_C" class="st5" cx="110.3" cy="90.5" rx="7.6" ry="5.4"/>
	<line id="Rod_1_" class="st0" x1="158" y1="90.3" x2="328.9" y2="90.3"/>
	<line id="Rod_2_" class="st0" x1="82.9" y1="98.3" x2="145.5" y2="98.3"/>
	<rect x="409.9" y="94.3" class="st1" width="3.9" height="16.9"/>
</g>
</svg>
