<svg id="Layer_1" data-name="Layer 1" xmlns="http://www.w3.org/2000/svg" viewBox="0 0 501 29.83"><defs><style>.cls-1,.cls-4{fill:#ee94bf;}.cls-1{stroke:#ee94bf;}.cls-1,.cls-6{stroke-miterlimit:10;}.cls-2{fill:#e2508f;opacity:0.5;}.cls-3{fill:#a34983;}.cls-5{fill:#f37129;}.cls-6{fill:none;stroke:#e2508f;stroke-width:1.5px;}</style></defs><rect id="Body" class="cls-1" x="0.5" y="10.08" width="330.41" height="15.27"/><path id="Headjoint" class="cls-1" d="M364.39,10.48H497.55a2.95,2.95,0,0,1,2.95,2.95v8.42a2.95,2.95,0,0,1-2.95,2.95H364.39a0,0,0,0,1,0,0V10.48a0,0,0,0,1,0,0Z"/><rect id="Mouthpiece" class="cls-2" x="432.44" y="7.05" width="38.87" height="16.03" rx="4.48"/><ellipse id="Blowhole" class="cls-3" cx="453.87" cy="15.45" rx="6.04" ry="4.13"/><rect class="cls-4" x="328.19" y="9.66" width="34.89" height="16.1"/><circle id="D_Key" data-name="D Key" class="cls-5" cx="109.45" cy="15.07" r="7.61"/><circle id="E_Key" data-name="E Key" class="cls-5" cx="130.93" cy="15.07" r="7.61"/><circle id="F_Key" data-name="F Key" class="cls-5" cx="152.4" cy="15.07" r="7.61"/><circle id="Linked_F" data-name="Linked F" class="cls-5" cx="172.08" cy="15.07" r="7.61"/><circle id="Linked_G" data-name="Linked G" class="cls-5" cx="189.97" cy="18.65" r="7.16"/><circle id="G_Key" data-name="G Key" class="cls-5" cx="206.07" cy="18.65" r="7.16"/><circle id="A_Key" data-name="A Key" class="cls-5" cx="223.97" cy="15.07" r="7.61"/><circle id="Skip_Key" data-name="Skip Key" class="cls-5" cx="241.86" cy="15.07" r="7.61"/><circle id="B_Key" data-name="B Key" class="cls-5" cx="259.75" cy="13.28" r="5.37"/><circle id="Linked_B" data-name="Linked B" class="cls-5" cx="279.43" cy="13.28" r="5.37"/><circle id="Linked_D_" data-name="Linked D#" class="cls-5" cx="83.41" cy="22.22" r="7.61"/><ellipse id="Linked_C_" data-name="Linked C#" class="cls-5" cx="34" cy="5.37" rx="7.6" ry="5.37"/><ellipse id="Linked_C" data-name="Linked C" class="cls-5" cx="60.84" cy="5.37" rx="7.6" ry="5.37"/><line id="Rod" class="cls-6" x1="189.97" y1="8.77" x2="206.07" y2="8.77"/><line id="Rod-2" data-name="Rod" class="cls-6" x1="108.46" y1="5.19" x2="279.43" y2="5.19"/><line id="Rod-3" data-name="Rod" class="cls-6" x1="33.41" y1="13.24" x2="96.04" y2="13.24"/><rect class="cls-2" x="328.19" y="9.18" width="3.9" height="16.89"/><rect class="cls-2" x="360.4" y="9.18" width="3.9" height="16.89"/></svg>