<svg id="Layer_1" data-name="Layer 1" xmlns="http://www.w3.org/2000/svg" xmlns:xlink="http://www.w3.org/1999/xlink" viewBox="0 0 1224 792"><defs><style>.cls-1{fill:#fff;}.cls-2{fill:url(#New_Gradient_Swatch_1);}.cls-3{fill:url(#New_Gradient_Swatch_1-2);}.cls-4{fill:url(#New_Gradient_Swatch_1-3);}.cls-5{fill:url(#New_Gradient_Swatch_1-4);}.cls-6{fill:url(#New_Gradient_Swatch_1-5);}.cls-7{fill:#010101;}</style><linearGradient id="New_Gradient_Swatch_1" x1="883.62" y1="737.89" x2="883.62" y2="488.1" gradientUnits="userSpaceOnUse"><stop offset="0" stop-color="#fff"/><stop offset="0.24" stop-color="#fbfbfb"/><stop offset="0.49" stop-color="#efeff0"/><stop offset="0.74" stop-color="#dadbdc"/><stop offset="0.99" stop-color="#bebfc1"/><stop offset="1" stop-color="#bcbec0"/></linearGradient><linearGradient id="New_Gradient_Swatch_1-2" x1="184.87" y1="737.89" x2="184.87" y2="488.1" xlink:href="#New_Gradient_Swatch_1"/><linearGradient id="New_Gradient_Swatch_1-3" x1="1089.85" y1="737.89" x2="1089.85" y2="488.1" xlink:href="#New_Gradient_Swatch_1"/><linearGradient id="New_Gradient_Swatch_1-4" x1="666.51" y1="737.89" x2="666.51" y2="488.1" xlink:href="#New_Gradient_Swatch_1"/><linearGradient id="New_Gradient_Swatch_1-5" x1="452.75" y1="737.89" x2="452.75" y2="488.1" xlink:href="#New_Gradient_Swatch_1"/></defs><rect class="cls-1" width="1224" height="792"/><path class="cls-2" d="M816.29,640.55c-1.62.76,13.62,32.71,15.55,36-5.22.22-10.63-.31-11.18,1s-.89,5.62.76,6.5,13.81.53,13.81.53a8.14,8.14,0,0,0,7.22,4c4.94-.22,5.17-1.89,5.72-3.65a61.87,61.87,0,0,1,8.12-.26,10.82,10.82,0,0,0,6.69,2.09c3.12-.22,7.28-2,7-6-.23-3.56-4.71-6.61-8.29-6.16a16,16,0,0,0-6.59,2.64l-11-.19s-15.78-24.54-16.32-28.51c6.85,1.77,31.32,9.06,37.11,9.9a43.53,43.53,0,0,0,15.75-.17c-8.37,7.69-9.07,19.4-.18,28.48s22,10.9,31.3,5.35c8.57-5.12,3.17-19.8-.67-23.78s-12-9.55-23-11.32c3.57-1.1,14.42,1.08,26.93,6.73,9,4.06,17.35,8.52,23.69,13.94s11.8,10.28,16.94,16.55a31.81,31.81,0,0,0,14.74,10.16c9,3,23.68,5.18,23.68,3.63s-12.83-6.73-19.72-9c-9.26-3-15-10.21-26.65-23.2-7.32-8.15-14.78-10.82-28-17.23s-19.77-11.39-26.5-15.6c-6.1-3.82-14.06-12.22-19.06-21.83-3.48-6.67-6.25-18.45-1.55-31.69,7.83-22.11,26.26-39.64,38.28-54.14,6.91-8.33,19.54-24.11,24.63-31.31,3.42-4.83,8.3-12.55,8.3-12.55,2.23-4-5.72-3.07-10.1-3.16-3.53-.07-22.55,0-34.08-.11-2.22,0-2.14,2.15,2.33,5,4,2.58,18,5.5,17.91,5.63-1.17,2.44-20.59,30.75-25.45,37.63-5.54,7.87-26.16,35.87-35.49,44.76-6.88,6.57-15.64-.15-19.65-6.28-3.62-5.53-13.39-21.55-16.59-30.55-2.78-7.81-3.94-34.46-4.35-42.77-.23-4.87-.8-9.08-1.08-9.46-1-1.33-7.58-1.73-12.83-2.16-7.79-.64-17.65-1.92-22.87-1.89-7.59,0-10.71-.42-6.72,4.07,5.77,6.46,24.42,7.59,25,10s7.74,40.87,13.17,49.61c4.87,7.83,9.76,20.26,28.05,43.28,4.11,13.44,7.27,23.93,11.92,36.58,4.39,12,4.93,13.68,4.93,13.68S820.67,638.49,816.29,640.55Z"/><path class="cls-3" d="M276.63,677.65c-.41-3.26-8.5-7.16-8.5-7.16l-.91-3.91-4.25.17s.2,1,1,3.66c-7.59-4.49-14.41-8.32-28-15.13-15-7.49-32.6-6.79-40.69-12.32s-4.84-37.81-1.84-55.21c5.43-.16,7.57-.25,7.57-.25s-2,19.84-3.66,29.6c8.49,3.9,15.65,6,27.52,6.85s24.29-2.59,24.29-2.59,5.28-18.21,6.09-31.55c-11.73-7.49-27.12-7.5-43.31-6.86,17.41-3.24,34.73-22,36.76-39.26,1.9-16.05-4-26.81-4.84-27.43,1.5-1.15,21.87-28.51,21.87-28.51h-5.22s-17.56,19.43-21.61,23c-7.68-7.48-18-17.58-36.22-21.16s-32.39-1.65-49.39,5.82-21.78,18.05-21.78,18.05l-23.57-25.77h-6.72s21.89,28.43,26.34,33.64c-6.38,11.22-5.83,26.69,1.6,39.93,7.58,13.5,21.23,18.71,30.46,21.19-4.14-.78-7.09-1-11.24-1.5a151.71,151.71,0,0,0-26.32-.34s-3.25,21.47-3.65,28c4.45,3.26,17.4,6.19,24.68,6.85a100.74,100.74,0,0,0,19.8.26c0,6.18,4.5,23.46,2.88,26.71s-28.9-2.71-40.7-2.92c-11.28-.21-27.08,5-34,7.3A90.63,90.63,0,0,1,77.66,650l-1.92-4.14-5.16,1.38,1.21,3.58s-4.45,2.92-3.24,6.17S75,661.18,75,661.18l12.56,30,5-1.38S85,670.75,81.35,659.69c4.06-5.21,39-14.66,45.5-14.33s42.39,7.43,50.07,12c-8.94,3.18-17,12.83-15.88,23.57.89,8.13,6.4,19.39,20,19.89,11.36.42,17.12-7.46,18.46-14.81,1.49-8.16.54-22.86-13.62-28.85,4.06-4.87,33-2.38,40.74.23s19.47,11,26.5,15.61c7.84,5.1,10.82,6.9,10.82,6.9l2.69,1.41,10.09,33,5.68-1s-7-23.68-9.8-30.83C274.61,682.2,277,680.91,276.63,677.65Zm-190.34-60C98,605.65,109.73,589,100.68,581c-6.07-5.38-31.28,8.35-39.78,15.83l4.67-75.47,30.78-33.67H89.63L64.2,516.87l5.72-29.18-5.86-.14-4.21,29.52-29-29.41H24.23l33.4,33.54s-1.18,65.72-.38,79c-10.13,11.38-21.85,29.08-13.69,34.88C51.46,640.76,74.54,629.71,86.29,617.68Zm225.52,2.59-.06-2.94,33.16-.21s-13.85-6.09-34-5.69c0-4.88-3.24-90.65-3.24-90.65l30.51-33.09-6.73.13-25.81,29.34,0-29.36h-5.78l1.55,29.26L277.3,487.72l-6.29.07,28.25,32.63,6.8,91s-18.53-.65-33.11,5.93c15.18-.23,32.64-.09,32.64-.09l.15,2.88L273,620s10.32,6.59,32.48,8.8l1.83,16.7,3-.1,1.17-16.64c11.45-1.23,31.63-6.52,34.07-9.69C331.85,619.58,311.81,620.27,311.81,620.27Z"/><path class="cls-1" d="M122.38,606.48a68.33,68.33,0,0,0,17.87,4.44,97.5,97.5,0,0,0,25.4-.51c.84-4,1.63-19.7,1.66-21a103.41,103.41,0,0,1-21.63.12,113.73,113.73,0,0,1-19.9-3.66C124.37,592.76,122.38,606.48,122.38,606.48Z"/><path class="cls-1" d="M202.33,614.7a99.34,99.34,0,0,0,18.41,4.38c9.94,1.32,17-.19,23.58-.9,1-4.13,5.53-22.5,5.6-23.82a93.39,93.39,0,0,1-21.09.17,123.83,123.83,0,0,1-22.32-4.42C204.84,597.26,202.33,614.7,202.33,614.7Z"/><path class="cls-1" d="M173.86,571.54c-22.54-4.49-37.24-16.93-39.66-30.76S134,512,155.88,500.13c21.56-11.69,56.08-8.91,70.65,8s12.45,40.25-2.06,51.39A62.13,62.13,0,0,1,173.86,571.54Z"/><path class="cls-4" d="M1019.83,505c-4.65,15.06-24.76,68.09-20.4,86.42s29.82,55.42,44.4,62c-5.18,4.55-4.5,20.4,6.4,28.42s26.73,11.63,35.72-.66c10.53-14.4-16.32-38.09-31.09-32.86l-5-3.68s9.37-8.57,18.13-8.88,30.41,8.84,35,12.21c-2.42,9.16-8.18,41.41-10.37,47.21-5.94-1.47-6.21,4.48-1.61,4.31-.19,2.44-.76,2.86-1.8,5-2.19-1.6-7.65,2.52-1.69,4.56-.67,2.73-10,13.11.85,15.42,14.9,3.17,14.75-5.56,14.29-14-.17-3,3.42-.28,4.47-3.18,1.09-3.06-1-2-3.17-3.59,1.56-8,4.24-2.27,5.74-6.22.94-2.51-3-2.55-2.68-3.82,1.66-6.05,14.25-48.06,17.35-60.27,9.05-2.67,40.17-7.47,46-38.26-8.5-2.39-15.67-11.22-13.59-19s14.73-13.63,20.72-11.16l6,2.48s16.88-31.35,4.16-45.86c-14.88-17-22.21-19.24-28.38-21.52a49.56,49.56,0,0,0-2-11.56l-9.82,10.29s-35.39-.6-47.16,9.73-19.91,25.92-19.37,35.65c7.51-.27,20.22,2.64,21,16.4s-13.18,19-22.1,16.58c-2.26,12.19-2,16.55-2,16.55-7.43,1.95-34.16,18-36.57,27.51s-4.59,7.89-4.59,7.89-16-16.92-14.45-27,18.79-25.29,33.87-38.51c9.17-8.06,11.76-44.79,11.17-55.53,8.77-7.71,25.27-12,21.09-19.55-13.63,3.16-32.67,8.91-34.46,10.48.59,10.74,1.73,51.28-9.31,61-13.17,11.57-26,18.24-29.77,21.56.69-17.84,20-74.46,19.51-83.52a347.5,347.5,0,0,0-38.57-9.06c-9.72-1.68-10.44,4.23-5,8.24S1010.15,504,1019.83,505Z"/><path class="cls-1" d="M1048.24,634.43c1.51-10.48,1-19.2,29.8-28.62,6.29,7.85,19.46,19.14,28.86,22.52-1.92,10.82-1.83,12.5-1.83,12.5s-21.61-12.35-34.12-11.91-18.67,7.88-21.25,10.15A37.86,37.86,0,0,0,1048.24,634.43Z"/><path class="cls-1" d="M1111,618.43c-9.87-4.35-22-12-24.84-33.41,11.68-.41,26-6.29,25.2-21.06s-12.82-23.59-17.61-27.11c4.82-15.13,28.21-31.08,45.84-30C1132.83,521.85,1111,618.43,1111,618.43Z"/><path class="cls-1" d="M1126.92,619.88c12.12-.42,31.93-12.89,36.06-21.44-9.77-2.68-21.58-12-14.45-27.05s25.62-13.35,31-13.54c4.29-21,0-38.32-18.46-46.41C1150.14,547.46,1126.92,619.88,1126.92,619.88Z"/><path class="cls-5" d="M747.52,488.05c3.05,2.46-7.77,10.56-29,12.17-12.72,31.24-25,48.18-50.29,59.63s-56.42,22.89-54.4,39.94.85,11.48,7.77,25.92c3.68-6.23,4.51-14.75,19.61-19-3.65-8.86-8.53-18.37-3.23-22.62s19.4-6.42,39.8-5.67c20.79.77,29.59,6.4,34.49,6.4,3.26-2.62,19.19-8.17,21.22,2.65s-4.53,21.32-12.7,27.87-18,10.79-24.49.29c-12.23-5.91-23.65-11.18-26.91-13.8s0,0,22,21c23.12,22.07,37.91,33.17,24.85,36.43s-15.92,2-24.49.3S668.9,655,665.22,657.9c4.07,3.28,16.87,22.33,6.08,27.55-15.45,7.47-30.61-1.35-36.71-13.16s-4.06-15.09-4.06-17.38c-10.19-5.26-45.64-55.81-28.87-76.45a263,263,0,0,1,39.4-38.53c-17.53-10.84-54.39-36.42-56-42.32s42.85-10.77,51-9.45c-1.64,7.54-17.35,14.83-22.83,14.07,12.84,10.34,46.89,32.35,46.88,35.63S635.36,561,627.6,567.17c21-9,51.45-19,55.75-29.61s16.4-44.49,16.41-47.77C714.45,487.83,747.52,488.05,747.52,488.05Z"/><path class="cls-1" d="M668.44,630.35c7.09,5.71,37.95,24.31,19.19,22.45s-24.71-5.55-29.29-1.87c-5.49,0-11.45-1.12-15.11-1.13C647.13,646.69,665.59,634,668.44,630.35Z"/><path class="cls-1" d="M659.29,624.82c-6.19,5-21.55,21.48-26.8,21.48s-5.71-12.69-.66-20.41S644.66,612.3,647,614.14,659.29,624.82,659.29,624.82Z"/><path class="cls-1" d="M709.39,616.35C720.12,614,729,591,721.66,591S703,605.23,703,610,702.22,618,709.39,616.35Z"/><path class="cls-1" d="M694.91,607.67c-6.87,0-26.55-12.4-31-11.53-8.16,1.6,17.82,20.24,31.07,35s20.55,22.83,14.15,22.82c-13.13,0-6.41,0-6.4-4.79,0-3.38-32-25.77-44.57-35.91s-22.35-23.38-6.6-28.51,45.66,3.28,53.9,6.24C699.74,595.54,694.91,605.46,694.91,607.67Z"/><path class="cls-6" d="M527.77,488.1c5.33,5.18-4.61,14-32.89,8.22,20.31,19.75,60.21,56.91,35.15,61.55s-38.29,3.64-38.29,3.64,10,28.21-30.61,45.38c0,0-7.05,3.26-3,7.2s18.35,13.19,22.44,27.74c4-4.83,5.51-5.4,5.51-5.4l2.65,2.63L481.8,646l6.16,6,9.82-6.52,2.77,2.7-8.72,7.16,5.53,5.79,8.35-5.54,1.91,2.54-6.7,5.2s11.1,10.78,10.39,16.85-7.81,13.57-18.18,12.78c1.18,4.1,25,10.32,34.63,9.14s25.24,8.06,10.93,20.36-35,21.81-43.5,13.5,10.16-13.37-22-51.42c-7.62,6-7.49,5-7.49,5l-2.78-2.7,7.49-5-5.34-5.19-6.28,5.31-3.33-3.24,6.24-5.77L457,668.32l-6.87,6L446.66,671l7.1-6.21-24.72-24c-14.57,4.43-36.66,10-42.05-4.94s21.73-26.65,34.47-25.67,14,2.21,14,2.21c5.16-3.42,69.11-28.77,23.79-64.37s-99.66-44.11-98.23-56.24c1.74-2,37.35-3.93,46.88-3.95s7.39,8.1-4.46,9.67-17.25-1.12-20.56-1.38c26.24,10.72,70.43,37.67,82.79,45.88s43.93,15.22,62.28,9c-11.65-21-57.1-54.19-59.55-61.65C477.19,487.67,527.77,488.1,527.77,488.1Z"/><path class="cls-1" d="M533.83,717.18c-.62,5.31-21.94,20.51-29.22,17.66s-7.78-6.72,2.55-13.58S535.18,705.8,533.83,717.18Z"/><path class="cls-1" d="M521.09,708.17c-7.25,1-19,6.26-22.66,12.46.85-7.2-2.86-13.46-6.28-16.77C504.66,706.79,512.8,709.83,521.09,708.17Z"/><path class="cls-1" d="M496.45,668.86c-4.17,2.77-13.46,9.53-17.24,12.68,3.84,3.73,10.64,11.78,16.41,10.1S514,682.37,496.45,668.86Z"/><polygon class="cls-1" points="493.45 665.01 475.05 679.18 470.52 674.77 488.22 659.91 493.45 665.01"/><polygon class="cls-1" points="484.12 656.39 466.45 671.05 462.88 666.4 478.98 650.45 484.12 656.39"/><path class="cls-1" d="M474.42,647.44S460.47,661,459.17,661.86c-2.26-2.21-12.59-10.36-3.51-16.39S471.16,644.27,474.42,647.44Z"/><path class="cls-1" d="M470.59,640.51c-1.11-6.27-8.89-11.91-15.77-16.7s-9.72-5.82-12.32-4.09c.78,2.4.94,13-10.15,20.38,4.64,4.52,13.49,11.2,14.44,12.12C447.36,647.36,455.12,634.42,470.59,640.51Z"/><path class="cls-7" d="M816.3,298.68c-1.62-.95,13.65-40.7,15.58-44.82-5.23-.27-10.63.38-11.18-1.27s-.89-7,.76-8.1,13.81-.65,13.81-.65,2.27-5.25,7.22-5,5.18,2.36,5.73,4.56a49.54,49.54,0,0,0,8.11.31s3-2.91,6.69-2.58c3.12.27,7.28,2.49,7,7.44-.23,4.44-4.72,8.22-8.29,7.67a14.62,14.62,0,0,1-6.59-3.3l-11,.23s-15.79,30.52-16.34,35.47c6.86-2.2,31.33-11.26,37.12-12.3a35.43,35.43,0,0,1,15.75.22c-8.37-9.56-9.07-24.15-.17-35.44,8.77-11.14,22-13.54,31.3-6.63,8.57,6.38,3.17,24.65-.68,29.59a40.53,40.53,0,0,1-23,14.08c3.58,1.37,14.42-1.34,26.94-8.36,9-5,17.36-10.59,23.7-17.34s11.8-12.77,16.94-20.58a32.68,32.68,0,0,1,14.75-12.63c9-3.78,23.69-6.43,23.69-4.51s-12.84,8.38-19.73,11.16c-9.26,3.74-15,12.69-26.67,28.86-7.32,10.12-14.78,13.45-28,21.41s-19.78,14.16-26.51,19.4c-6.11,4.75-14.07,15.2-19.08,27.16-3.48,8.3-6.26,22.95-1.57,39.44,7.83,27.52,26.24,49.35,38.26,67.41,6.9,10.36,19.52,30,24.61,39,3.41,6,8.29,15.63,8.29,15.63,2.22,5-5.72,3.81-10.1,3.91-3.54.09-22.55.05-34.08.12-2.22,0-2.14-2.68,2.33-6.25,4-3.21,18-6.83,17.91-7-1.17-3-20.57-38.29-25.42-46.85-5.54-9.8-26.15-44.66-35.47-55.74-6.87-8.18-15.64.18-19.65,7.81-3.63,6.89-13.41,26.81-16.61,38-2.78,9.71-4,42.88-4.37,53.22-.24,6.06-.81,11.31-1.09,11.78-1,1.65-7.58,2.15-12.83,2.67-7.8.79-17.65,2.38-22.87,2.34-7.6-.06-10.72.51-6.72-5.07,5.77-8,24.42-9.42,25-12.44S807.56,419.87,813,409c4.87-9.75,9.77-25.21,28.06-53.84,4.12-16.73,7.29-29.78,12-45.52,4.39-14.87,4.94-17,4.94-17S820.68,301.25,816.3,298.68Z"/><path class="cls-7" d="M87.6,234.69,75,272s-5.24,1.12-6.45,5.17,3.23,7.69,3.23,7.69l-1.21,4.45,5.16,1.72,1.92-5.16A76.57,76.57,0,0,1,91.09,290c6.88,2.83,22.68,9.36,34,9.11,11.8-.26,39.08-7.64,40.7-3.6s-2.89,25.55-2.89,33.24c-6.48-.81-12.51-.51-19.79.3s-20.25,4.46-24.7,8.51c.41,8.1,3.64,34.82,3.64,34.82a121.69,121.69,0,0,0,26.32-.41,112,112,0,0,0,11.24-1.86c-9.23,3.08-22.88,9.55-30.47,26.35-7.44,16.47-8,35.73-1.62,49.7C123,452.6,101.11,488,101.11,488l6.72,0,23.59-32.05s4.76,13.15,21.77,22.46,31.17,11.75,49.39,7.29,28.54-17,36.23-26.32C242.86,463.83,260.4,488,260.4,488h5.23s-22-36.74-22-35.52,7-12.66,5-34.11-19.33-44.84-36.74-48.89c16.19.81,31.58.81,43.32-8.5-.81-16.6-6.07-39.27-6.07-39.27s-12.55-4.25-24.29-3.24-19,3.65-27.53,8.5c1.62,12.15,3.64,36.85,3.64,36.85s-2.13-.12-7.56-.33c-3-21.65-6.23-61.82,1.86-68.7s25.72-6,40.7-15.31C249.6,271,256.42,266.27,264,260.7c-.81,3.34-1,4.55-1,4.55l4.25.21.91-4.86s8.1-4.86,8.51-8.91-2-5.67-4.05-6.07c2.83-8.91,9.81-38.36,9.81-38.36L276.76,206l-10.11,41.1L264,248.89s-3,2.24-10.82,8.58c-7,5.7-18.82,16.18-26.51,19.42s-36.69,6.32-40.74.25c14.16-7.45,15.12-25.75,13.64-35.89-1.34-9.16-7.1-19-18.46-18.46-13.58.62-19.09,14.62-20,24.75C159.9,260.9,168,272.91,177,276.89c-7.69,5.66-43.6,14.48-50.08,14.88S85.43,280.38,81.38,273.9c3.65-13.76,11.18-37.5,11.18-37.5Z"/><path class="cls-7" d="M43.58,304.42c-8.17,7.22,3.54,29.25,13.66,43.42-.81,16.6.33,98.39.33,98.39L24.16,488h6.56l29.07-36.58L64,488.13l5.86-.18-5.7-36.32L89.55,488h6.72L65.51,446l-4.62-93.93c8.5,9.31,33.7,26.42,39.77,19.74,9-10-2.62-30.67-14.37-45.65S51.48,297.44,43.58,304.42Z"/><path class="cls-7" d="M305.44,312.5l1.84-20.77,3,.13,1.16,20.7c11.44,1.54,31.63,8.14,34.06,12.09-13.67-.65-33.7-1.52-33.7-1.52l-.07,3.66,33.16.29s-13.85,7.56-34,7.05c0,6.07-3.3,112.82-3.3,112.82l30.49,40.9-6.73.14-25.79-36.53,0,36.54h-5.78l1.56-36.31-24.09,36.24-6.28.07,28.27-40.6,6.85-113.26s-18.53.79-33.11-7.41c15.19.3,32.64.15,32.64.15l.15-3.6-32.79.17S283.28,315.24,305.44,312.5Z"/><path class="cls-1" d="M122.38,340.15a58.09,58.09,0,0,1,17.87-5.51,78.07,78.07,0,0,1,25.4.66c.83,4.94,1.62,24.52,1.64,26.1a83.17,83.17,0,0,0-21.63-.17,92.7,92.7,0,0,0-19.9,4.55C124.36,357.23,122.38,340.15,122.38,340.15Z"/><path class="cls-1" d="M202.33,330a83.7,83.7,0,0,1,18.41-5.45c9.94-1.63,17,.26,23.59,1.14,1,5.14,5.51,28,5.58,29.66a75.12,75.12,0,0,0-21.09-.24,103.84,103.84,0,0,0-22.33,5.48C204.83,351.69,202.33,330,202.33,330Z"/><path class="cls-1" d="M173.83,383.67c-22.54,5.57-37.24,21.05-39.67,38.26s-.2,35.83,21.66,50.6c21.55,14.57,56.07,11.14,70.64-9.92s12.48-50.09-2-64C210.47,385.29,192.66,379,173.83,383.67Z"/><path class="cls-7" d="M1019.76,467.93c-4.63-18.75-24.71-84.76-20.34-107.57s29.85-69,44.44-77.09c-5.19-5.67-4.49-25.4,6.42-35.38s26.73-14.45,35.71.85c10.52,17.93-16.34,47.39-31.11,40.87l-5,4.59s9.36,10.67,18.12,11.06,30.41-11,35-15.17c-2.42-11.41-8.16-51.55-10.34-58.76-5.94,1.83-6.21-5.58-1.61-5.37-.19-3-.76-3.56-1.8-6.21-2.18,2-7.64-3.15-1.68-5.68-.68-3.39-10-16.32.86-19.19,14.9-3.94,14.74,6.94,14.28,17.37-.17,3.76,3.42.35,4.46,4,1.09,3.81-1,2.46-3.16,4.46,1.55,9.89,4.23,2.84,5.73,7.75.94,3.13-3,3.16-2.68,4.75,1.65,7.53,14.22,59.82,17.31,75,9.05,3.33,40.17,9.32,46,47.66-8.5,3-15.68,13.94-13.6,23.65s14.72,17,20.71,13.91l6-3.09s16.87,39,4.14,57.09c-14.9,21.13-22.22,23.93-28.39,26.76a78.9,78.9,0,0,1-2,14.51l-9.83-12.94s-35.38.72-47.15-12.15-19.89-32.26-19.35-44.38c7.51.34,20.22-3.27,21-20.39s-13.17-23.61-22.09-20.66c-2.25-15.16-2-20.59-2-20.59-7.43-2.43-34.15-22.44-36.55-34.26s-4.59-9.83-4.59-9.83-16,21-14.46,33.66,18.77,31.48,33.84,48c9.17,10,11.73,55.75,11.14,69.12,8.76,9.59,25.26,14.56,21.07,24-13.62-3.95-32.66-10.76-34.45-12.72.6-13.37,1.76-63.82-9.27-75.88-13.16-14.4-26-22.71-29.76-26.85.68,22.21,20,92.69,19.46,104A292.59,292.59,0,0,1,995.65,488c-9.72,2.08-10.44-5.27-5-10.26S1010.08,469.16,1019.76,467.93Z"/><path class="cls-1" d="M1048.25,306.89c1.51,13,1,23.89,29.79,35.64,6.29-9.76,19.47-23.81,28.87-28-1.92-13.47-1.82-15.56-1.82-15.56s-21.62,15.35-34.13,14.79-18.66-9.82-21.25-12.65A52.22,52.22,0,0,1,1048.25,306.89Z"/><path class="cls-1" d="M1111,326.85c-9.87,5.41-22,14.91-24.86,41.56,11.69.53,26,7.85,25.19,26.23s-12.83,29.35-17.63,33.73c4.82,18.84,28.19,38.71,45.83,37.4C1132.78,447.07,1111,326.85,1111,326.85Z"/><path class="cls-1" d="M1126.93,325.05c12.11.54,31.91,16.07,36,26.71-9.77,3.33-21.59,14.94-14.47,33.67s25.62,16.62,31,16.86c4.28,26.13,0,47.69-18.48,57.75C1150.1,415.21,1126.93,325.05,1126.93,325.05Z"/><path class="cls-7" d="M747.6,488.15c3.06-3.07-7.92-12.85-29.15-14.88-12.7-38.88-24.94-60-50.25-74.24s-56.41-28.53-54.38-49.75S614.68,335,621.6,317c3.68,7.75,4.51,18.36,19.61,23.65-3.66,11-8.55,22.87-3.25,28.16s19.4,8,39.8,7.08c20.79-.94,29.59-7.94,34.49-7.94,3.26,3.26,19.19,10.19,21.22-3.28S729,338.17,720.79,330s-18-13.45-24.49-.39c-12.23,7.36-23.66,13.9-26.92,17.16s0,0,22-26.13c23.14-27.46,37.94-41.25,24.88-45.32s-15.93-2.44-24.49-.39-22.86,5.73-26.53,2.06c4.07-4.09,16.88-27.78,6.09-34.29-15.44-9.31-30.6,1.66-36.71,16.35s-4.08,18.78-4.07,21.64c-10.2,6.54-45.68,69.41-28.92,95.12a300.07,300.07,0,0,0,39.38,48c-17.54,13.48-54.42,45.29-56,52.64s35.66,12.56,51,11.71c-1.64-9.39-17.29-18.26-22.82-17.44,12.84-12.87,46.9-40.24,46.9-44.32s-24.72-28.76-32.47-36.51c21,11.21,51.44,23.64,55.73,36.9s16.36,55.39,16.37,59.47C714.38,488.69,747.6,488.15,747.6,488.15Z"/><path class="cls-1" d="M668.45,311.29c7.09-7.1,38-30.24,19.21-27.93s-24.72,6.88-29.3,2.31c-5.49,0-11.44,1.38-15.11,1.38C647.15,290.94,665.6,306.72,668.45,311.29Z"/><path class="cls-1" d="M659.3,318.16c-6.19-6.17-21.54-26.75-26.8-26.75s-5.7,15.79-.66,25.4,12.82,16.93,15.11,14.64S659.3,318.16,659.3,318.16Z"/><path class="cls-1" d="M709.39,328.74c10.73,3,19.58,31.55,12.26,31.55S703,342.58,703,336.63,702.22,326.74,709.39,328.74Z"/><path class="cls-1" d="M694.9,339.53c-6.86,0-26.55,15.42-31,14.33-8.16-2,17.83-25.18,31.09-43.5S715.57,282,709.16,282c-13.12,0-6.41,0-6.4,5.95,0,4.21-32,32.06-44.59,44.66s-22.36,29.08-6.62,35.48,45.67-4.05,53.91-7.72C699.73,354.63,694.9,342.28,694.9,339.53Z"/><path class="cls-7" d="M527.7,488.1c5.33-6.44-4.61-17.38-32.89-10.26,20.32-24.55,60.24-70.77,35.19-76.57s-38.29-4.55-38.29-4.55,10.06-35.1-30.58-56.51c0,0-7.05-4.06-3-9s18.35-16.4,22.45-34.51c4.05,6,5.51,6.73,5.51,6.73l2.65-3.27-6.93-8.61,6.16-7.45,9.82,8.12,2.77-3.35L491.85,280l5.53-7.21,8.35,6.9,1.92-3.15-6.7-6.48s11.1-13.42,10.39-21-7.79-16.89-18.17-15.91c1.18-5.11,25-12.83,34.65-11.36s25.24-10,10.93-25.32-34.94-27.18-43.49-16.84,10.15,16.65-22.05,64c-7.62-7.48-7.49-6.2-7.49-6.2l-2.78,3.36,7.49,6.2-5.34,6.46-6.28-6.62-3.33,4,6.23,7.19L457,263.76l-6.86-7.47-3.42,4.13,7.09,7.73S438.67,286.41,429.06,298c-14.58-5.53-36.66-12.49-42.05,6.11s21.71,33.19,34.45,32,14-2.75,14-2.75c5.16,4.28,69.1,35.87,23.75,80.14S359.55,468.34,361,483.43c1.75,2.5,37.25,4.7,46.77,4.73s7.51-9.84-4.34-11.82-17.25,1.39-20.55,1.7c26.24-13.3,70.44-46.81,82.81-57s43.93-18.9,62.28-11.12c-11.65,26.12-57.13,67.4-59.58,76.69C477.12,488.6,527.7,488.1,527.7,488.1Z"/><path class="cls-1" d="M533.89,204.3c-.62-6.61-21.92-25.55-29.21-22s-7.78,8.36,2.55,16.91S535.23,218.45,533.89,204.3Z"/><path class="cls-1" d="M521.15,215.5c-7.26-1.22-19-7.81-22.66-15.52a29.55,29.55,0,0,1-6.29,20.87C504.72,217.2,512.85,213.42,521.15,215.5Z"/><path class="cls-1" d="M496.48,264.4c-4.17-3.45-13.45-11.86-17.23-15.79,3.84-4.64,10.64-14.65,16.42-12.55S514,247.61,496.48,264.4Z"/><polygon class="cls-1" points="493.48 269.2 475.09 251.55 470.56 257.03 488.25 275.54 493.48 269.2"/><polygon class="cls-1" points="484.14 279.91 466.49 261.66 462.91 267.44 479 287.3 484.14 279.91"/><path class="cls-1" d="M474.44,291.05S460.5,274.17,459.2,273.1c-2.27,2.74-12.59,12.87-3.52,20.39S471.18,295,474.44,291.05Z"/><path class="cls-1" d="M470.61,299.67c-1.11,7.81-8.91,14.82-15.78,20.78s-9.73,7.23-12.32,5.08c.77-3,.95-16.19-10.15-25.38,4.65-5.62,13.5-13.92,14.45-15.07C447.38,291.13,455.13,307.24,470.61,299.67Z"/></svg>